<?xml version="1.0" encoding="UTF-8"?>
<svg xmlns="http://www.w3.org/2000/svg" xmlns:xlink="http://www.w3.org/1999/xlink" width="40px" height="40px" viewBox="0 0 40 40" version="1.1">
<g id="surface1">
<path style=" stroke:none;fill-rule:nonzero;fill:rgb(0%,0%,0%);fill-opacity:1;" d="M 18.976562 1.125 C 11.375 1.578125 4.832031 6.542969 2.371094 13.710938 C 1.730469 15.589844 1.429688 17.324219 1.371094 19.449219 C 1.335938 20.75 1.390625 21.574219 1.59375 22.773438 C 2.136719 26.023438 3.457031 28.972656 5.515625 31.542969 C 6.074219 32.238281 7.308594 33.492188 8.058594 34.117188 C 12.621094 37.941406 18.800781 39.359375 24.558594 37.902344 C 27.191406 37.242188 29.574219 36.054688 31.75 34.3125 C 32.417969 33.78125 33.976562 32.222656 34.519531 31.539062 C 36.339844 29.253906 37.460938 26.964844 38.164062 24.113281 C 38.566406 22.488281 38.640625 21.988281 38.671875 20.699219 C 38.78125 16.210938 37.636719 12.347656 35.175781 8.890625 C 34.3125 7.675781 32.863281 6.148438 31.671875 5.199219 C 28.9375 3.007812 25.625 1.625 22.160156 1.226562 C 21.453125 1.148438 19.621094 1.089844 18.976562 1.125 Z M 12.902344 4.667969 C 14.304688 5.019531 15.171875 6.246094 15.046875 7.691406 C 14.980469 8.488281 14.65625 9.351562 14.128906 10.144531 C 13.757812 10.699219 12.761719 11.679688 12.179688 12.066406 C 11.382812 12.589844 10.484375 12.957031 9.6875 13.085938 C 9.453125 13.121094 9.023438 13.144531 8.644531 13.128906 C 7.878906 13.101562 7.414062 12.960938 6.882812 12.597656 C 6.070312 12.035156 5.695312 11.214844 5.75 10.089844 C 5.78125 9.390625 5.9375 8.851562 6.320312 8.132812 C 6.636719 7.527344 6.929688 7.160156 7.570312 6.539062 C 8.785156 5.359375 9.886719 4.796875 11.445312 4.566406 C 11.71875 4.527344 12.582031 4.582031 12.902344 4.667969 Z M 25.679688 13.679688 C 27.070312 14.132812 28.117188 15.269531 28.445312 16.671875 C 28.566406 17.183594 28.554688 18.066406 28.421875 18.585938 C 27.808594 20.921875 25.359375 22.238281 23.097656 21.433594 C 21.867188 21 20.945312 20.019531 20.53125 18.71875 C 20.425781 18.382812 20.410156 18.222656 20.410156 17.570312 C 20.410156 16.75 20.464844 16.507812 20.757812 15.859375 C 21.257812 14.75 22.363281 13.859375 23.585938 13.578125 C 24.109375 13.457031 25.160156 13.507812 25.679688 13.679688 Z M 18.503906 20.457031 C 18.679688 20.890625 19.191406 21.625 19.636719 22.101562 C 21.796875 24.402344 25.222656 24.796875 27.867188 23.054688 C 28.332031 22.746094 29.070312 22.039062 29.46875 21.515625 C 29.71875 21.1875 29.796875 21.121094 29.890625 21.136719 C 30.558594 21.277344 32.761719 21.851562 33.523438 22.085938 C 34.503906 22.382812 36.042969 22.914062 37.121094 23.328125 L 37.722656 23.554688 L 37.710938 23.726562 C 37.695312 24.015625 37.242188 25.515625 36.933594 26.304688 C 36.351562 27.785156 35.578125 29.160156 34.550781 30.550781 C 33.53125 31.933594 31.84375 33.585938 30.527344 34.496094 C 29.644531 35.097656 29.316406 35.300781 28.546875 35.726562 C 26.089844 37.066406 22.945312 37.851562 20.0625 37.851562 C 17.707031 37.851562 15.296875 37.382812 13.164062 36.511719 C 8.207031 34.496094 4.390625 30.390625 2.722656 25.285156 C 2.527344 24.707031 2.292969 23.835938 2.292969 23.71875 C 2.292969 23.578125 4.707031 22.710938 7.011719 22.027344 C 9.644531 21.242188 11.804688 20.792969 14.46875 20.46875 C 15.652344 20.328125 17.242188 20.199219 17.964844 20.183594 L 18.382812 20.175781 Z M 18.503906 20.457031 "/>
<path style=" stroke:none;fill-rule:nonzero;fill:rgb(0%,0%,0%);fill-opacity:1;" d="M 23.773438 14.527344 C 22.617188 14.769531 21.664062 15.742188 21.398438 16.929688 C 21.136719 18.105469 21.632812 19.410156 22.605469 20.105469 C 22.964844 20.359375 23.359375 20.546875 23.742188 20.640625 C 24.101562 20.730469 24.855469 20.71875 25.246094 20.621094 C 26.34375 20.332031 27.226562 19.433594 27.507812 18.304688 C 27.621094 17.835938 27.585938 17.039062 27.429688 16.578125 C 26.902344 15.0625 25.339844 14.1875 23.773438 14.527344 Z M 25.207031 14.78125 C 26.152344 15.03125 26.957031 15.824219 27.246094 16.8125 C 27.382812 17.269531 27.371094 18.019531 27.222656 18.457031 C 27.050781 18.941406 26.792969 19.335938 26.414062 19.699219 C 25.265625 20.765625 23.5625 20.742188 22.441406 19.628906 C 22.027344 19.222656 21.742188 18.710938 21.636719 18.210938 C 21.546875 17.785156 21.59375 16.988281 21.730469 16.605469 C 22.042969 15.746094 22.824219 15.027344 23.707031 14.78125 C 24.054688 14.6875 24.832031 14.6875 25.207031 14.78125 Z M 25.207031 14.78125 "/>
</g>
</svg>
